<?xml version="1.0" encoding="UTF-8" standalone="no"?>
<!-- Created with Inkscape (http://www.inkscape.org/) -->

<svg
   version="1.1"
   id="svg330"
   width="328"
   height="92"
   viewBox="0 0 328 92"
   sodipodi:docname="simspace.logo.color.inkscape.svg"
   inkscape:version="1.1.1 (3bf5ae0d25, 2021-09-20)"
   xmlns:inkscape="http://www.inkscape.org/namespaces/inkscape"
   xmlns:sodipodi="http://sodipodi.sourceforge.net/DTD/sodipodi-0.dtd"
   xmlns="http://www.w3.org/2000/svg"
   xmlns:svg="http://www.w3.org/2000/svg">
  <defs
     id="defs334" />
  <sodipodi:namedview
     id="namedview332"
     pagecolor="#ffffff"
     bordercolor="#666666"
     borderopacity="1.0"
     inkscape:pageshadow="2"
     inkscape:pageopacity="0.0"
     inkscape:pagecheckerboard="true"
     showgrid="false"
     inkscape:zoom="6.3170732"
     inkscape:cx="149.59459"
     inkscape:cy="45.986486"
     inkscape:window-width="3168"
     inkscape:window-height="1675"
     inkscape:window-x="8"
     inkscape:window-y="109"
     inkscape:window-maximized="1"
     inkscape:current-layer="g336" />
  <g
     inkscape:groupmode="layer"
     inkscape:label="Image"
     id="g336">
    <g
       id="g640">
      <path
         style="fill:#1864f6;stroke-width:0.666667"
         d="M 38.463899,88.726053 C 31.787718,86.0344 25.948296,79.23684 24.988414,73.039507 24.259158,68.331167 24.152469,68.190587 21.042319,67.840027 9.3123593,66.517893 0.28339493,53.860787 2.7036917,42.132325 4.650291,32.699344 10.734211,26.649756 20.506013,24.430461 l 3.825881,-0.868904 0.433951,-3.033695 C 25.787978,13.382267 30.402809,7.3016667 37.234692,4.098641 42.570594,1.5969841 50.074171,1.5821596 55.333333,4.0628844 62.044105,7.2283267 67.219407,14.110711 67.853827,20.713297 l 0.300426,3.126614 2.983287,0.408905 c 8.023707,1.099771 15.185367,6.901974 17.911013,14.511067 1.516587,4.233806 1.353474,10.800496 -0.38334,15.432594 C 86.085347,61.073015 78.6739,66.921553 71.45042,67.777073 l -3.29688,0.39046 -0.302733,3.150627 c -0.633294,6.590827 -5.591066,13.331873 -12.240436,16.643227 -4.510174,2.246046 -12.579592,2.605906 -17.146472,0.764666 z M 218,52.631827 v -18.03484 l 3.46715,0.201506 L 224.9343,35 l 0.69952,3.30031 c 0.68339,3.224233 0.71767,3.260394 1.48725,1.568706 0.9332,-2.051355 4.51759,-4.863742 6.91955,-5.429215 2.35125,-0.553536 6.19453,0.616512 8.5583,2.605498 6.29811,5.29951 4.8889,21.181659 -2.17693,24.534618 -4.68254,2.22201 -10.72139,0.913234 -12.71173,-2.754964 -0.93119,-1.716184 -0.9918,-1.417678 -1.0169,5.00838 l -0.0267,6.833334 H 222.33333 218 Z m 18.16711,1.953225 c 1.66403,-2.238603 1.81431,-9.163313 0.25065,-11.549762 -2.96341,-4.522741 -8.70453,-1.830733 -9.16623,4.298043 -0.27944,3.709242 0.15156,5.908874 1.4916,7.612446 1.8797,2.389655 5.51066,2.213228 7.42398,-0.360727 z M 109.15283,62.64154 c -1.74928,-0.294233 -4.14928,-1.098911 -5.33334,-1.788175 -1.89098,-1.100782 -2.17798,-1.645047 -2.35962,-4.474868 -0.19875,-3.096245 -0.14684,-3.202872 1.33333,-2.739007 4.92037,1.541971 8.37946,2.36051 9.97535,2.36051 4.51652,0 7.14243,-2.853393 4.90309,-5.327837 -0.61336,-0.677757 -2.6654,-1.603571 -4.56009,-2.057364 -5.18662,-1.24224 -7.44132,-2.355286 -9.33857,-4.610034 -4.254387,-5.056052 -2.55076,-13.479914 3.31498,-16.391455 3.50197,-1.738249 12.92766,-1.787367 16.07871,-0.08379 1.99707,1.079697 2.16666,1.430959 2.16666,4.487599 0,1.823917 -0.075,3.312966 -0.16666,3.308997 -0.0917,-0.004 -1.63935,-0.453969 -3.43929,-1 -4.76807,-1.446444 -9.41685,-1.303312 -11.06071,0.34055 -0.73334,0.733333 -1.33334,1.611904 -1.33334,1.95238 0,1.217894 2.10672,2.691078 4.86334,3.400836 7.80192,2.008793 10.82609,3.740648 12.17678,6.973302 2.91012,6.964889 -0.8697,14.001936 -8.3868,15.614065 -3.74493,0.803143 -4.25114,0.805109 -8.83382,0.03429 z m 88.1805,0.04467 c -1.65,-0.290665 -4.125,-0.998662 -5.5,-1.573328 -2.4718,-1.03306 -2.5,-1.087451 -2.5,-4.822203 0,-3.759393 0.007,-3.772758 1.5,-2.810159 1.88225,1.21367 7.05485,2.519481 9.98021,2.519481 3.13087,0 5.31424,-1.682595 5.05785,-3.897795 -0.18439,-1.593166 -0.80932,-1.969378 -6.29126,-3.787409 -3.3476,-1.110196 -6.59238,-2.438346 -7.21063,-2.951445 -1.96996,-1.634926 -3.03617,-4.525616 -3.03617,-8.231656 0,-4.201818 1.73435,-7.317778 5.19951,-9.34154 3.12851,-1.827152 9.66213,-2.215696 14.34864,-0.853292 l 3.78519,1.100384 v 3.648043 c 0,2.006424 -0.075,3.644796 -0.16667,3.640827 -0.0917,-0.004 -1.63935,-0.453969 -3.43929,-1 -5.8539,-1.775842 -10.82686,-1.15665 -11.47578,1.428868 -0.585,2.330834 0.59842,3.30446 5.60778,4.613628 5.75672,1.504489 8.97137,3.26724 10.41496,5.711032 1.58281,2.679493 1.53371,8.64931 -0.0941,11.443896 -2.41451,4.145101 -9.36585,6.363087 -16.18021,5.162668 z m 57,0.146595 c -5.28988,-0.931819 -7.81491,-6.033951 -5.34753,-10.80535 0.98355,-1.901975 1.57304,-2.194835 10.34753,-5.140731 2.82476,-0.948368 3.71555,-1.573936 3.87956,-2.724466 0.41186,-2.88921 -4.65431,-3.336189 -12.42223,-1.095989 -1.46511,0.422524 -1.53215,0.297959 -1.33333,-2.477353 0.19693,-2.74905 0.39614,-3.014922 3.36123,-4.485858 4.16985,-2.068601 11.35702,-2.235291 14.60441,-0.338715 4.26801,2.492654 4.91036,4.616539 4.91036,16.235658 V 62.333333 L 269.0645,62.5407 c -3.54324,0.224775 -4.35457,-0.365331 -4.40981,-3.207367 -0.0321,-1.649735 -0.0441,-1.653121 -1.18598,-0.333333 -2.55232,2.949987 -5.9809,4.388469 -9.13538,3.832805 z m 7.9622,-6.314475 c 0.57079,-0.814919 1.0378,-2.789386 1.0378,-4.387706 v -2.906036 l -2.5,1.494397 c -3.49354,2.088293 -3.66666,2.291647 -3.66666,4.306835 0,3.090687 3.33059,4.059897 5.12886,1.49251 z M 130.66667,48.666667 v -14 H 135 h 4.33333 v 14 14 H 135 130.66667 Z m 12.97646,13.179053 c -0.18679,-0.48676 -0.25791,-6.726176 -0.15804,-13.865369 L 143.66667,35 h 3.30144 3.30145 l 0.72405,2.973769 0.72406,2.973769 1.43663,-2.307103 c 1.90153,-3.05367 3.73041,-4.08488 7.24468,-4.08488 3.40467,0 6.72088,2.028452 7.33837,4.488708 0.49396,1.968093 1.35551,2.096971 1.92946,0.288624 0.23283,-0.733579 1.43914,-2.108579 2.68069,-3.055556 2.84577,-2.170576 7.6347,-2.375912 10.25243,-0.439597 3.24453,2.399945 3.68365,4.273723 3.70952,15.828933 l 0.0239,10.666666 h -4.33333 -4.33334 l -0.33333,-9.859381 c -0.26292,-7.776685 -0.54457,-9.992549 -1.33333,-10.489791 -1.78588,-1.125834 -3.8731,-0.689135 -5.28495,1.105745 -1.24131,1.578067 -1.38172,2.662028 -1.38172,10.666667 l 1e-5,8.910094 H 165 160.66667 l -0.01,-8.833334 c -0.0113,-10.15143 -0.5863,-12.058428 -3.72886,-12.367376 -3.41016,-0.335258 -3.88852,0.951899 -4.26134,11.466586 l -0.33334,9.40079 -4.17529,0.198702 c -3.00192,0.142862 -4.27074,-0.05001 -4.51491,-0.686315 z m 138.6902,-0.289185 c -4.95855,-2.619968 -6.96332,-6.337054 -6.98536,-12.951679 -0.0284,-8.519748 5.15319,-14.071523 13.1332,-14.071523 2.15006,0 5.02138,0.464692 6.38068,1.032649 2.3397,0.977585 2.47148,1.195111 2.47148,4.079368 0,3.003541 -0.026,3.039453 -1.83333,2.534018 -1.00833,-0.281986 -3.23593,-0.511047 -4.9502,-0.509026 -4.46997,0.0053 -6.5498,2.066019 -6.5498,6.489695 0,7.579294 4.77363,10.107387 12.87887,6.820595 1.06534,-0.432012 1.1865,-0.180529 1,2.075789 -0.31451,3.805091 -3.28526,5.619084 -9.14412,5.583554 -2.68404,-0.01628 -5.18179,-0.439021 -6.40142,-1.08344 z m 25.24547,0.384698 c -1.14833,-0.33285 -3.14594,-1.77635 -4.43915,-3.207776 -4.71954,-5.223972 -4.76572,-14.481583 -0.0994,-19.933106 2.65943,-3.106937 5.68458,-4.32052 10.65855,-4.275825 7.20027,0.0647 11.52404,4.774763 11.60529,12.642141 L 325.33333,50 H 317 c -7.95062,0 -8.33333,0.06263 -8.33333,1.363637 0,1.975288 2.80392,4.476628 5.6078,5.00264 2.21266,0.415095 5.56868,-0.117462 8.55886,-1.358177 C 323.83119,54.594061 324,54.91159 324,57.202537 c 0,2.498004 -0.19391,2.772388 -2.87715,4.071326 -3.09546,1.498488 -9.5752,1.817771 -13.54405,0.66737 z m 9.75453,-16.5645 c 0,-1.217288 -1.42889,-4.35732 -2.20837,-4.852956 -2.47625,-1.574536 -6.45829,0.851863 -6.45829,3.935264 0,1.45212 0.24982,1.540959 4.33333,1.540959 2.38333,0 4.33333,-0.28047 4.33333,-0.623267 z M 131.87133,31.5 c -1.66607,-1.939877 -1.91216,-3.487252 -0.87392,-5.494985 1.78806,-3.457736 6.20636,-3.478533 7.98574,-0.03759 1.6577,3.205634 -0.41948,6.699238 -3.98315,6.699238 -1.19926,0 -2.56364,-0.508772 -3.12867,-1.166667 z"
         id="path644" />
      <path
         style="fill:#161c4e;stroke-width:0.666667"
         d="M 218.44445,70.22222 C 218.2,69.97778 218,62.0121 218,52.520716 V 35.263654 l 3.49646,0.201506 3.49645,0.201507 0.59736,3.285404 0.59736,3.285404 1.07285,-2.261634 c 1.54797,-3.263209 4.91587,-5.309174 8.73952,-5.309174 5.81913,0 9.71437,4.299141 10.46245,11.547282 0.96323,9.332796 -3.825,16.452718 -11.06464,16.452718 -3.4903,0 -5.39527,-0.928876 -7.23114,-3.525949 l -1.5,-2.121943 v 6.823946 6.823946 h -3.88889 c -2.13889,0 -4.08889,-0.2 -4.33333,-0.444447 z m 16.99232,-14.437345 c 1.54406,-1.174578 2.73836,-6.108613 2.22053,-9.173666 -0.87413,-5.173953 -4.59214,-7.416713 -8.15651,-4.920134 -3.07396,2.153091 -3.49303,9.77725 -0.73046,13.2893 1.47273,1.872261 4.74386,2.267018 6.66644,0.8045 z M 17.533225,66.758593 C 8.188062,63.529553 2.5970135,55.885434 2.5414943,46.261797 2.5043804,39.828495 4.9065399,34.2132 9.5757793,29.818433 12.125073,27.418995 17.37343,24.952867 21.081073,24.412261 l 2.747739,-0.400644 0.759078,3.827525 c 0.967518,4.878547 3.905169,10.004384 7.494217,13.076475 C 35.1579,43.548381 40.916601,46 44.025009,46 45.769441,46 46,46.230559 46,47.974991 c 0,3.311574 -2.697852,9.421965 -5.504181,12.466472 -3.352789,3.637348 -6.26178,5.439348 -10.679335,6.61541 -4.634547,1.233834 -8.092178,1.149867 -12.283259,-0.29828 z M 68.34212,66.246632 C 66.75806,58.477268 64.171418,53.897077 59.368939,50.357764 56.674121,48.371746 50.654297,46 48.308325,46 c -1.375001,0 -1.641658,-0.320801 -1.641658,-1.974991 0,-3.444856 2.722187,-9.47482 5.728075,-12.688357 11.099533,-11.866299 30.537071,-8.085303 36.247158,7.050807 2.9832,7.907766 0.894507,17.403445 -5.131993,23.33125 C 80.63028,64.55118 75.6,67.069713 71.532773,67.71536 c -2.68568,0.426333 -2.816566,0.36608 -3.190653,-1.468728 z m 36.99121,-4.798695 c -2.99186,-1.143107 -3.00055,-1.155903 -3.20448,-4.716248 -0.18469,-3.224447 -0.0879,-3.520738 1,-3.06082 4.12774,1.745053 6.2485,2.273902 9.22281,2.299869 4.21221,0.03677 6.47465,-1.377995 6.1864,-3.868533 -0.18498,-1.598286 -0.81243,-1.970404 -6.50629,-3.858646 -7.16814,-2.377152 -9.6113,-4.44851 -10.34094,-8.767238 -0.99992,-5.918458 2.5072,-11.243408 8.46708,-12.855767 3.30372,-0.893775 9.4495,-0.414364 12.83802,1.001448 2.23468,0.933711 2.3374,1.124607 2.3374,4.34398 0,1.852043 -0.11228,3.367351 -0.24951,3.367351 -0.13723,0 -1.52495,-0.45 -3.08382,-1 -5.80936,-2.049661 -12.66667,-0.807516 -12.66667,2.294463 0,1.643157 2.25085,2.997875 6.66667,4.012466 4.69878,1.079605 8.78368,3.419455 10.02445,5.742051 0.53655,1.004374 0.96611,3.51585 0.95458,5.58106 -0.0258,4.613045 -1.9066,7.61348 -5.91308,9.433004 -3.5709,1.62171 -11.55458,1.647875 -15.73262,0.05156 z m 90,0.787522 c -0.55,-0.17927 -2.125,-0.801148 -3.5,-1.381951 -2.3999,-1.013725 -2.5,-1.185417 -2.5,-4.288091 0,-1.777646 0.075,-3.231932 0.16667,-3.231748 0.0917,1.86e-4 1.74489,0.600186 3.67382,1.333334 5.0223,1.908875 9.76561,1.78751 11.85648,-0.303366 0.9,-0.9 1.63637,-1.903504 1.63637,-2.230009 0,-1.292973 -2.54012,-2.740791 -6.66667,-3.799866 -8.20345,-2.10541 -11.07698,-5.376862 -10.52883,-11.986832 0.56604,-6.825799 4.81106,-10.029117 13.1955,-9.957425 3.05608,0.02613 5.97196,0.463878 7.5,1.12594 2.41596,1.046772 2.5,1.196387 2.5,4.450537 0,1.852043 -0.075,3.362835 -0.16667,3.357314 -0.0917,-0.0055 -1.36667,-0.442353 -2.83333,-0.970739 -3.13823,-1.130586 -9.20826,-1.31147 -11.04383,-0.329101 -1.49541,0.80032 -1.71045,3.463932 -0.36949,4.576827 0.506,0.419948 3.40437,1.485816 6.44081,2.368597 7.56279,2.198719 9.48586,4.127932 9.81309,9.844401 0.45981,8.032804 -3.83404,11.897225 -13.1121,11.800754 -2.784,-0.02895 -5.51182,-0.199306 -6.06182,-0.378576 z m 56.2017,-0.366822 c -0.80572,-0.389284 -1.93072,-1.689318 -2.5,-2.888966 -2.57152,-5.419084 -0.27514,-8.735889 7.62965,-11.020017 2.94813,-0.851875 5.82903,-2.066884 6.40201,-2.700019 0.95013,-1.049874 0.9197,-1.27324 -0.34578,-2.538729 -1.65682,-1.656816 -5.07887,-1.817979 -9.61496,-0.452818 L 250,43.202843 v -2.858794 c 0,-2.642385 0.18925,-2.951052 2.5,-4.077536 3.63985,-1.774414 11.79908,-2.031698 14.81065,-0.467022 4.14454,2.153309 4.87106,4.372282 5.22302,15.952325 L 272.84515,62 h -3.68458 c -3.83114,0 -4.4939,-0.503787 -4.4939,-3.415929 0,-1.057438 -0.48928,-0.79254 -2.56344,1.387858 -2.33531,2.454917 -2.85446,2.690722 -5.83334,2.649618 -1.79844,-0.02481 -3.92912,-0.363626 -4.73486,-0.75291 z m 10.69156,-5.084027 c 1.15758,-1.279109 2.33597,-7.451277 1.4226,-7.451277 -1.3103,0 -6.26822,3.466323 -6.64189,4.643666 -1.03878,3.272904 2.88705,5.38472 5.21929,2.807611 z m 19.93357,4.511754 c -1.56191,-0.793175 -3.39102,-2.234337 -4.06469,-3.202583 -4.95472,-7.121215 -2.99386,-18.258094 3.85208,-21.878315 3.55782,-1.881416 9.68463,-2.102251 13.11836,-0.472839 2.0827,0.988306 2.26742,1.319985 2.26742,4.071326 0,2.590498 -0.15769,2.930715 -1.16666,2.517056 -2.33382,-0.956818 -6.85675,-1.149737 -8.73316,-0.372502 -2.49978,1.035442 -3.78724,3.53227 -3.65,7.07857 0.14154,3.657307 1.72213,6.0297 4.66411,7.00064 2.20297,0.727044 3.56575,0.653622 7.85647,-0.423283 1.69975,-0.426609 1.7818,-0.336378 1.57778,1.735197 -0.32484,3.298485 -2.91763,4.892354 -8.40318,5.165698 -3.57557,0.178169 -5.05134,-0.06763 -7.31853,-1.218965 z M 307,61.441737 c -5.12342,-2.432048 -7.03159,-5.782788 -7.08266,-12.437156 -0.051,-6.647865 2.22571,-10.853776 7.08266,-13.084094 5.41207,-2.48523 12.93783,-1.175496 15.77961,2.74618 1.40148,1.93403 2.65224,7.812577 2.1064,9.899908 C 324.52896,49.931918 324.13489,50 316.58891,50 c -7.8476,0 -7.92224,0.01461 -7.92224,1.550457 0,3.997298 6.45158,6.223456 12.28033,4.237402 L 324,54.747597 v 2.550241 c 0,2.286536 -0.25851,2.675854 -2.5,3.765035 -3.68484,1.790529 -11.11705,1.984722 -14.5,0.378864 z M 317.07937,43.896872 C 316.48619,40.930947 315.50117,40 312.95617,40 c -2.46888,0 -4.2895,1.902185 -4.2895,4.481671 0,1.427206 0.26506,1.518329 4.41666,1.518329 H 317.5 Z m -186.4127,4.769795 V 35.333333 H 135 139.33333 V 48.666667 62 H 135 130.66667 Z m 12.66666,0 V 35.333333 h 3.55494 3.55493 L 151.10125,38.5 c 0.63437,3.052743 0.68554,3.106707 1.42227,1.5 1.71667,-3.743776 4.04432,-5.333333 7.80981,-5.333333 3.87744,0 7.61611,2.687284 7.65184,5.5 0.0229,1.801406 0.92638,1.384224 1.93448,-0.89324 0.5015,-1.132949 1.84973,-2.631828 2.99608,-3.330842 2.5509,-1.555474 7.54698,-1.677926 9.60641,-0.235449 C 185.54251,37.822687 186,39.873865 186,51.300227 V 62 h -4.33333 -4.33334 v -9.285714 c 0,-7.55267 -0.19552,-9.481237 -1.04762,-10.333333 -1.30236,-1.302361 -3.62068,-1.347111 -5.32496,-0.102787 -1.15511,0.843366 -1.31739,1.953075 -1.51114,10.333333 L 169.23255,62 h -4.28294 -4.28294 v -8.851663 c 0,-10.022986 -0.6101,-11.815004 -4.02244,-11.815004 -3.40962,0 -4.27548,2.312284 -4.54451,12.13614 L 151.8661,62 h -4.26638 -4.26639 z M 132.14834,31.628864 c -1.03298,-0.723528 -1.48167,-1.718531 -1.48167,-3.285714 0,-3.596447 3.2025,-5.828415 6.14148,-4.28028 2.04464,1.077033 2.50289,1.878615 2.51498,4.399327 0.0112,2.329907 -1.9163,4.20447 -4.32313,4.20447 -0.75349,0 -2.03675,-0.467012 -2.85166,-1.037803 z"
         id="path642" />
    </g>
  </g>
</svg>
