<?xml version="1.0" standalone="no"?>
<!DOCTYPE svg PUBLIC "-//W3C//DTD SVG 20010904//EN"
 "http://www.w3.org/TR/2001/REC-SVG-20010904/DTD/svg10.dtd">
<svg version="1.0" xmlns="http://www.w3.org/2000/svg"
 width="492.000000pt" height="138.000000pt" viewBox="0 0 492.000000 138.000000"
 preserveAspectRatio="xMidYMid meet">

<g transform="translate(0.000000,138.000000) scale(0.100000,-0.100000)"
fill="#000000" stroke="none">
<path d="M614 1336 c-64 -16 -111 -44 -161 -99 -42 -46 -83 -138 -83 -186 0
-27 -4 -29 -47 -36 -93 -13 -170 -60 -226 -135 -83 -114 -78 -285 12 -399 51
-64 161 -121 233 -121 23 0 26 -5 31 -51 12 -103 86 -200 187 -248 74 -35 190
-36 267 -2 98 43 193 177 193 270 0 26 4 29 44 33 103 12 206 86 256 184 22
42 25 62 25 144 0 83 -4 101 -27 145 -51 98 -144 165 -249 180 -46 7 -47 7
-53 52 -18 130 -112 234 -243 268 -67 18 -90 18 -159 1z"/>
<path d="M1995 1018 c-28 -16 -35 -28 -35 -64 0 -38 27 -64 67 -64 69 0 91
100 28 128 -31 14 -35 14 -60 0z"/>
<path d="M1636 976 c-81 -30 -125 -105 -111 -188 11 -65 48 -96 155 -132 86
-28 95 -34 98 -58 7 -57 -82 -75 -188 -38 -30 11 -58 19 -62 20 -14 0 -9 -87
5 -99 29 -24 105 -42 175 -42 120 0 190 53 200 149 8 89 -37 148 -133 172 -82
22 -124 41 -131 63 -16 51 79 73 182 42 27 -8 50 -15 52 -15 1 0 2 23 2 51 0
48 -1 51 -37 66 -53 22 -159 27 -207 9z"/>
<path d="M2955 978 c-78 -29 -115 -80 -115 -159 0 -83 45 -135 140 -159 112
-28 137 -54 96 -95 -36 -36 -116 -33 -218 10 -16 6 -18 1 -18 -43 l0 -50 51
-21 c73 -32 182 -31 246 1 64 32 85 73 81 157 -4 58 -7 66 -39 96 -24 22 -57
37 -105 50 -38 10 -79 24 -91 32 -29 17 -30 58 -4 73 28 14 119 12 166 -5 22
-8 41 -15 43 -15 1 0 2 22 2 50 0 45 -3 51 -31 66 -39 20 -164 28 -204 12z"/>
<path d="M2341 846 c-13 -7 -34 -30 -46 -50 l-23 -37 -6 45 -7 46 -55 0 -54 0
0 -200 0 -200 64 0 64 0 3 128 c5 147 18 182 69 182 51 0 60 -27 60 -177 l0
-133 65 0 65 0 0 126 c0 150 12 183 67 184 46 0 53 -21 53 -171 l0 -139 65 0
65 0 0 160 c0 172 -7 203 -52 234 -28 20 -100 21 -138 1 -15 -8 -39 -31 -52
-52 -21 -34 -23 -36 -26 -16 -2 13 -17 36 -33 53 -25 25 -38 30 -77 30 -26 -1
-58 -7 -71 -14z"/>
<path d="M3452 834 c-19 -15 -38 -38 -44 -53 -10 -24 -11 -25 -18 -6 -5 11 -9
32 -9 48 -1 26 -3 27 -56 27 l-55 0 0 -265 0 -265 65 0 65 0 0 103 0 102 19
-29 c26 -39 57 -55 109 -56 111 -1 184 105 169 247 -12 111 -70 173 -161 173
-40 0 -58 -6 -84 -26z m77 -81 c45 -36 48 -157 5 -204 -23 -25 -75 -25 -98 0
-62 68 -27 221 49 221 13 0 33 -8 44 -17z"/>
<path d="M3793 840 c-42 -19 -43 -21 -43 -66 0 -40 2 -45 18 -39 9 5 43 13 74
18 70 13 111 -1 106 -35 -4 -26 -14 -31 -106 -59 -110 -33 -144 -85 -107 -164
19 -39 51 -55 111 -55 39 0 51 5 81 35 19 19 36 35 38 35 1 0 5 -13 9 -30 5
-29 7 -30 62 -30 l56 0 -4 153 c-4 173 -16 208 -78 239 -48 24 -161 23 -217
-2z m162 -247 c-8 -55 -28 -83 -61 -83 -27 0 -48 32 -39 60 5 17 78 69 99 70
4 0 5 -21 1 -47z"/>
<path d="M4233 839 c-23 -11 -53 -38 -70 -62 -25 -38 -28 -50 -28 -128 0 -77
3 -90 28 -128 36 -55 91 -80 173 -81 78 0 127 29 132 78 4 36 -2 38 -59 20
-87 -25 -151 24 -151 117 0 51 17 80 54 96 28 11 96 8 131 -6 15 -6 17 -1 17
39 0 44 -2 48 -35 62 -51 21 -142 18 -192 -7z"/>
<path d="M4605 844 c-45 -25 -65 -45 -87 -88 -23 -44 -27 -144 -9 -199 15 -43
66 -90 116 -107 48 -16 150 -9 198 14 33 16 37 22 37 57 0 22 -2 39 -4 39 -2
0 -20 -7 -39 -15 -87 -36 -187 1 -187 69 0 13 20 16 123 18 l122 3 -3 60 c-3
65 -22 107 -65 139 -38 28 -158 34 -202 10z m121 -72 c15 -10 34 -47 34 -66 0
-13 -13 -16 -65 -16 -63 0 -65 1 -65 25 0 46 60 82 96 57z"/>
<path d="M1960 650 l0 -200 65 0 65 0 0 200 0 200 -65 0 -65 0 0 -200z"/>
</g>
</svg>
